<?xml version="1.0" encoding="iso-8859-1"?>
<!-- Generator: Adobe Illustrator 16.0.0, SVG Export Plug-In . SVG Version: 6.00 Build 0)  -->
<!DOCTYPE svg PUBLIC "-//W3C//DTD SVG 1.1//EN" "http://www.w3.org/Graphics/SVG/1.1/DTD/svg11.dtd">
<svg version="1.1" id="Capa_1" xmlns="http://www.w3.org/2000/svg" xmlns:xlink="http://www.w3.org/1999/xlink" x="0px" y="0px"
	 width="950px" height="950px" viewBox="0 0 950 950" style="enable-background:new 0 0 950 950;" xml:space="preserve">
<g>
	<g>
		<path d="M475,0C212.665,0,0,212.665,0,475s212.665,475,475,475s475-212.665,475-475S737.335,0,475,0z M875.438,475.001
			c0,54.049-10.591,106.493-31.478,155.876c-20.17,47.688-49.04,90.509-85.808,127.276c-36.77,36.769-79.592,65.639-127.277,85.809
			C581.493,864.849,529.049,875.439,475,875.439s-106.493-10.592-155.875-31.479c-47.687-20.17-90.509-49.04-127.277-85.809
			s-65.638-79.591-85.808-127.276C85.153,581.493,74.562,529.049,74.562,475s10.591-106.493,31.478-155.876
			c20.17-47.687,49.04-90.509,85.808-127.277c36.769-36.768,79.591-65.638,127.277-85.808C368.507,85.153,420.951,74.562,475,74.562
			s106.493,10.591,155.875,31.478c47.688,20.17,90.509,49.04,127.277,85.808c36.768,36.769,65.638,79.591,85.808,127.277
			C864.848,368.508,875.438,420.952,875.438,475.001z"/>
		<path d="M475,119.562c-94.941,0-184.2,36.972-251.333,104.105c-67.133,67.134-104.105,156.393-104.105,251.334
			S156.534,659.2,223.667,726.334C290.801,793.468,380.059,830.439,475,830.439s184.199-36.973,251.333-104.105
			c67.133-67.134,104.104-156.392,104.104-251.333s-36.972-184.2-104.104-251.333C659.2,156.534,569.941,119.562,475,119.562z
			 M586.608,196.646l-7.191,31.212l-7.7,33.423l-49.72,215.807l-3.914,16.989c-0.705,2.975-1.789,6.135-3.188,8.997
			c-7.269,14.868-22.169,23.507-37.673,23.507c-6.176,0-12.451-1.373-18.373-4.268c-17.274-8.445-26.13-27.198-22.804-45.226
			c0.677-3.668,1.846-7.307,3.564-10.821l107.097-219.062l13.768-28.161l13.192-26.984c0.213-0.437,0.461-0.819,0.723-1.178
			c1.375-1.882,3.353-2.728,5.335-2.728c3.787,0,7.562,3.039,7.038,7.595C586.729,196.042,586.678,196.341,586.608,196.646z
			 M171.893,467.204c-0.031-1.613-0.151-3.41-0.127-5.395c0.038-1.988,0.08-4.16,0.125-6.508c0.059-2.349,0.065-4.888,0.179-7.586
			c0.188-2.69,0.389-5.551,0.6-8.572c0.107-1.515,0.216-3.069,0.328-4.664c0.154-1.591,0.377-3.213,0.571-4.88
			c0.423-3.326,0.781-6.833,1.315-10.464c0.624-3.621,1.274-7.39,1.948-11.299c0.293-1.971,0.816-3.921,1.244-5.936
			c0.451-2.011,0.91-4.056,1.377-6.134c3.955-16.569,9.953-35.034,18.889-54.286c0.518-1.224,1.115-2.415,1.724-3.607
			c0.603-1.198,1.208-2.401,1.817-3.61c1.23-2.414,2.428-4.883,3.727-7.326c1.363-2.41,2.739-4.842,4.127-7.295
			c0.697-1.229,1.396-2.464,2.099-3.705c0.706-1.239,1.507-2.423,2.262-3.647c1.538-2.435,3.089-4.89,4.652-7.364
			c0.761-1.256,1.62-2.447,2.466-3.657c0.848-1.21,1.699-2.425,2.553-3.645c0.856-1.221,1.716-2.446,2.579-3.676l1.299-1.85
			l1.386-1.792c1.857-2.396,3.728-4.811,5.611-7.241l1.419-1.829c0.484-0.602,0.997-1.179,1.496-1.771
			c1.007-1.179,2.017-2.362,3.03-3.549c1.016-1.188,2.035-2.38,3.057-3.576l1.539-1.797c0.526-0.589,1.076-1.155,1.615-1.735
			c2.173-2.31,4.36-4.634,6.559-6.972l1.659-1.755l1.738-1.682c1.163-1.124,2.328-2.25,3.497-3.38
			c4.598-4.622,9.638-8.858,14.644-13.271c2.54-2.159,5.205-4.187,7.831-6.303c1.321-1.05,2.646-2.101,3.974-3.155
			c1.372-0.994,2.747-1.989,4.125-2.987c21.953-16.14,47.178-29.734,74.518-39.617c3.442-1.176,6.891-2.355,10.346-3.536
			c3.476-1.127,7.015-2.059,10.539-3.096l5.311-1.504l5.377-1.262l5.395-1.258c1.804-0.405,3.6-0.88,5.426-1.173
			c3.646-0.66,7.297-1.32,10.95-1.981c0.916-0.156,1.83-0.345,2.749-0.475l2.764-0.361l5.537-0.717l5.551-0.71
			c1.852-0.254,3.712-0.326,5.571-0.496l11.183-0.862c1.372,0.013,0.566-0.002,0.955-0.002l0.322-0.01l0.645-0.021l1.289-0.041
			l2.578-0.081l5.156-0.163l2.578-0.082l1.288-0.041c0.423-0.017,0.957,0.012,1.431,0.016l5.857,0.13l5.87,0.15l2.939,0.083
			c0.971,0.037,1.882,0.127,2.826,0.188c3.752,0.281,7.502,0.562,11.247,0.842c1.883,0.105,3.738,0.393,5.605,0.611l5.596,0.702
			l5.599,0.712l5.552,0.961c3.693,0.678,7.414,1.256,11.084,2.034c3.662,0.838,7.318,1.675,10.966,2.511
			c2.949,0.729,5.881,1.513,8.802,2.327l-13.339,27.284l-13.188,26.977c-2.653-0.939-5.31-1.88-7.972-2.824
			c-2.885-0.972-5.83-1.76-8.757-2.664l-4.411-1.312l-4.476-1.087l-4.49-1.099c-1.501-0.355-2.993-0.783-4.517-1.032
			c-3.041-0.582-6.085-1.165-9.131-1.748c-0.758-0.139-1.541-0.314-2.277-0.425l-2.189-0.307l-4.39-0.63l-4.407-0.651
			c-0.383-0.05-0.703-0.122-1.138-0.155l-1.285-0.105l-2.57-0.211l-5.142-0.423l-2.571-0.211l-1.286-0.105l-0.643-0.053
			l-0.321-0.026c0.175-0.005-0.846-0.025,0.312-0.019l-9.414-0.341c-1.571-0.036-3.15-0.173-4.719-0.129l-4.715,0.07l-4.723,0.063
			l-2.365,0.029c-0.788,0.018-1.568,0.095-2.354,0.139c-3.146,0.203-6.289,0.406-9.43,0.608c-1.579,0.061-3.133,0.3-4.696,0.469
			l-4.691,0.543l-4.697,0.537l-4.652,0.77c-3.097,0.544-6.222,0.979-9.301,1.603c-3.074,0.673-6.143,1.344-9.204,2.015
			c-24.428,5.792-47.851,15.078-68.973,27.179c-1.329,0.746-2.654,1.489-3.978,2.231c-1.286,0.804-2.568,1.606-3.848,2.407
			c-2.551,1.62-5.153,3.156-7.645,4.827c-4.91,3.44-9.906,6.723-14.51,10.418c-1.173,0.899-2.344,1.796-3.51,2.69l-1.751,1.34
			l-1.677,1.417c-2.237,1.892-4.461,3.772-6.671,5.642c-0.551,0.471-1.115,0.928-1.654,1.409l-1.581,1.475
			c-1.055,0.982-2.106,1.962-3.154,2.938c-1.05,0.978-2.097,1.953-3.141,2.924c-0.519,0.489-1.053,0.964-1.557,1.464l-1.484,1.523
			c-1.981,2.031-3.949,4.048-5.903,6.051l-1.467,1.502l-1.384,1.562c-0.922,1.042-1.841,2.079-2.756,3.113
			c-0.918,1.035-1.832,2.066-2.742,3.093c-0.911,1.028-1.837,2.04-2.667,3.119c-1.709,2.126-3.404,4.236-5.084,6.328
			c-0.831,1.055-1.708,2.073-2.493,3.148c-0.783,1.078-1.563,2.15-2.339,3.219c-1.558,2.141-3.102,4.263-4.631,6.365
			c-1.472,2.142-2.848,4.319-4.261,6.449c-0.701,1.069-1.399,2.133-2.094,3.192c-0.703,1.055-1.393,2.111-2.007,3.203
			c-10.459,17.126-18.199,34.048-23.819,49.543c-0.677,1.947-1.343,3.865-1.998,5.75c-0.633,1.893-1.361,3.729-1.856,5.593
			c-1.085,3.711-2.131,7.289-3.135,10.727c-0.919,3.464-1.653,6.824-2.437,10.026c-0.374,1.604-0.774,3.167-1.103,4.703
			c-0.287,1.544-0.566,3.049-0.838,4.516c-0.546,2.94-1.063,5.725-1.549,8.342c-0.412,2.627-0.699,5.1-1.021,7.402
			c-0.309,2.309-0.595,4.444-0.857,6.4c-0.249,1.963-0.334,3.766-0.485,5.371c-0.529,6.427-0.811,9.854-0.811,9.855
			C172.205,477.088,172.097,473.65,171.893,467.204z M733.701,321.438c0.814,1.259,1.617,2.518,2.339,3.813
			c12.204,20.381,21.183,40.492,27.661,58.876c0.781,2.312,1.548,4.584,2.304,6.82c0.729,2.245,1.548,4.428,2.129,6.632
			c1.242,4.396,2.439,8.635,3.59,12.708c1.053,4.1,1.9,8.074,2.784,11.862c0.424,1.896,0.87,3.748,1.241,5.563
			c0.327,1.823,0.646,3.603,0.955,5.333c0.609,3.473,1.186,6.761,1.729,9.854c0.461,3.104,0.788,6.026,1.142,8.746
			c0.336,2.724,0.646,5.242,0.931,7.552c0.268,2.312,0.365,4.417,0.527,6.302c0.548,7.556,0.841,11.586,0.841,11.586h-100
			c0,0,0.119-2.837,0.342-8.154c0.041-1.331,0.173-2.825,0.168-4.462c-0.015-1.638-0.031-3.425-0.05-5.355
			c-0.026-1.935,0.006-4.022-0.058-6.243c-0.132-2.216-0.272-4.572-0.42-7.062c-0.069-1.248-0.14-2.531-0.211-3.847
			c-0.112-1.31-0.289-2.644-0.433-4.017c-0.322-2.74-0.567-5.634-0.968-8.628c-0.479-2.986-0.977-6.095-1.494-9.317
			c-0.208-1.63-0.64-3.234-0.971-4.896c-0.352-1.66-0.708-3.349-1.071-5.064c-3.096-13.681-7.854-28.957-15.046-44.954
			c-0.409-1.021-0.895-2.008-1.392-2.997c-0.489-0.995-0.979-1.994-1.474-2.999c-0.997-2.005-1.953-4.065-3.002-6.1
			c-1.107-2.005-2.226-4.029-3.354-6.07c-0.562-1.026-1.127-2.057-1.694-3.092c-0.569-1.036-1.23-2.017-1.845-3.037
			c-1.25-2.032-2.51-4.082-3.78-6.147c-0.611-1.054-1.319-2.043-2.012-3.052c-0.693-1.01-1.389-2.024-2.086-3.042
			c-0.697-1.021-1.397-2.047-2.1-3.077l-1.055-1.551l-1.138-1.494c-1.52-2.006-3.048-4.026-4.588-6.06l-1.156-1.536
			c-0.396-0.504-0.82-0.984-1.23-1.48c-0.825-0.987-1.654-1.977-2.486-2.97c-0.831-0.997-1.665-1.998-2.502-3.001l-1.257-1.512
			c-0.431-0.494-0.886-0.965-1.328-1.451c-1.784-1.938-3.579-3.889-5.385-5.851l-1.357-1.479l-1.434-1.407
			c-0.957-0.943-1.916-1.889-2.878-2.836c-3.766-3.902-7.938-7.437-12.045-11.173c-1.747-1.521-3.573-2.962-5.388-4.437l8.384-36.39
			l7.893-34.256c4.514,2.344,8.956,4.785,13.307,7.331c1.568,0.904,3.133,1.807,4.695,2.707c1.521,0.966,3.038,1.93,4.552,2.892
			c3.015,1.946,6.076,3.816,9.017,5.826c5.809,4.118,11.673,8.102,17.109,12.517c1.38,1.081,2.757,2.159,4.129,3.234l2.056,1.615
			l1.979,1.692c2.631,2.268,5.246,4.521,7.846,6.763c0.647,0.565,1.307,1.117,1.939,1.693l1.864,1.76
			c1.239,1.175,2.477,2.346,3.709,3.513c1.231,1.172,2.46,2.339,3.684,3.503c0.608,0.586,1.231,1.158,1.824,1.755l1.747,1.816
			c2.325,2.427,4.633,4.838,6.925,7.232l1.715,1.8l1.628,1.862c1.083,1.242,2.162,2.479,3.236,3.712
			c1.074,1.237,2.144,2.469,3.209,3.696c1.064,1.229,2.142,2.443,3.121,3.724c2.002,2.535,3.986,5.05,5.956,7.544
			c0.972,1.258,1.987,2.48,2.909,3.759c0.92,1.283,1.834,2.56,2.744,3.831c1.818,2.553,3.619,5.083,5.404,7.59
			c1.721,2.551,3.34,5.137,4.986,7.675C732.079,318.909,732.892,320.176,733.701,321.438z"/>
	</g>
</g>
<g>
</g>
<g>
</g>
<g>
</g>
<g>
</g>
<g>
</g>
<g>
</g>
<g>
</g>
<g>
</g>
<g>
</g>
<g>
</g>
<g>
</g>
<g>
</g>
<g>
</g>
<g>
</g>
<g>
</g>
</svg>
